:version 1.10
:name ASF
:units
  mass 1
  length 1
  angle deg
:documentation
  ASF file generated by Kaydara
:root
  axis xyz
  order  tx ty tz rx ry rz
  position 0 0 0
  orientation 0 0 0
:bonedata
  begin
    id 1
    name RightUpLegDummy
    direction -1 2.30186e-007 8.31532e-007
    length 4.04083
    axis 0 0 0 xyz
  end
  begin
    id 2
    name RightUpLeg
    direction -0.000919234 -0.999985 0.00544864
    length 17.4221
    axis -3.80308 -0.00076134 -0.0523649 xyz
    dof rx ry rz
  end
  begin
    id 3
    name RightLeg
    direction -0.000919271 -0.999984 -0.00555045
    length 17.1239
    axis 4.00314 0.0181274 -0.183583 xyz
    dof rx ry rz
  end
  begin
    id 4
    name RightFoot
    direction -2.57843e-005 -4.04509e-007 1
    length 6.72091
    axis 8.18909e-005 -0.122003 -0.403008 xyz
    dof rx ry rz
  end
  begin
    id 5
    name RightToes
    direction 0.00116825 -0.014069 0.9999
    length 3.85082
    axis 0.000514414 0.540638 -0.356797 xyz
    dof rx ry rz
  end
  begin
    id 6
    name SpineDummy
    direction 0.0168869 0.966876 -0.254689
    length 6.99894
    axis 0 0 0 xyz
  end
  begin
    id 7
    name Spine
    direction -0.0132008 0.999903 0.00446247
    length 11.1999
    axis -0.00148109 0.00725429 0.756411 xyz
    dof rx ry rz
  end
  begin
    id 8
    name Spine1
    direction 0 0 0
    length 0
    axis -0.000934958 0.0245693 1.46543 xyz
    dof rx ry rz
  end
  begin
    id 9
    name HEadDummy
    direction -0.0255732 0.999672 0.00128215
    length 3.43865
    axis -0.000934958 0.0245693 1.46543 xyz
  end
  begin
    id 10
    name HEad
    direction -0.0472656 0.980052 0.19304
    length 5.12695
    axis -0.000934954 0.0245693 1.46543 xyz
    dof rx ry rz
  end
  begin
    id 11
    name LeftShoulder1Dummy
    direction 0.953098 0.301717 -0.023914
    length 3.68488
    axis -0.000934958 0.0245693 1.46543 xyz
  end
  begin
    id 12
    name LeftShoulder1
    direction 0.962466 0.271167 0.0112566
    length 3.13809
    axis -0.000934958 0.0245693 1.46543 xyz
    dof rx ry rz
  end
  begin
    id 13
    name LeftArm
    direction 0.999943 0.00455037 -0.00961766
    length 11.3419
    axis -23.1648 0.685459 1.22814 xyz
    dof rx ry rz
  end
  begin
    id 14
    name LeftForeArm
    direction 0.999332 0.0131969 0.0340885
    length 8.70632
    axis -9.90633 0.618216 0.0826942 xyz
    dof rx ry rz
  end
  begin
    id 15
    name LeftHand
    direction 0.994373 -0.0366703 0.0993905
    length 5.32135
    axis 0.00675269 0.680415 0.445699 xyz
    dof rx ry rz
  end
  begin
    id 16
    name RightShoulderDummy
    direction -0.967298 0.252589 -0.0230903
    length 3.68488
    axis -0.000934958 0.0245693 1.46543 xyz
  end
  begin
    id 17
    name RightShoulder
    direction -0.975062 0.221602 0.0120823
    length 3.13809
    axis 0.216257 0.0246515 1.45863 xyz
    dof rx ry rz
  end
  begin
    id 18
    name RightArm
    direction -0.99886 -0.00851186 -0.0469687
    length 10.3947
    axis -23.196 0.23503 -0.532632 xyz
    dof rx ry rz
  end
  begin
    id 19
    name RightForeArm
    direction -0.99909 0.00114866 0.0426317
    length 8.68355
    axis -9.91764 -0.134943 0.610517 xyz
    dof rx ry rz
  end
  begin
    id 20
    name RightHand
    direction -0.992888 -0.0489538 0.10852
    length 5.28593
    axis -0.00275396 -0.197403 0.246414 xyz
    dof rx ry rz
  end
  begin
    id 21
    name LeftUpLegDummy
    direction 1 -2.30186e-007 -8.31532e-007
    length 4.04083
    axis 0 0 0 xyz
  end
  begin
    id 22
    name LeftUpLeg
    direction -0.000920097 -1 2.79241e-006
    length 17.4221
    axis -3.48782 0.00143434 -0.0532288 xyz
    dof rx ry rz
  end
  begin
    id 23
    name LeftLeg
    direction -0.000920097 -1 2.7912e-006
    length 17.1239
    axis 3.68162 -0.00806512 -0.0529896 xyz
    dof rx ry rz
  end
  begin
    id 24
    name LeftFoot
    direction -2.57845e-005 -3.987e-007 1
    length 6.72091
    axis 3.02372e-005 -0.00147829 -0.214229 xyz
    dof rx ry rz
  end
  begin
    id 25
    name LeftToes
    direction 0.00813577 -0.00488255 0.999955
    length 3.85048
    axis 3.89895e-005 -0.0014783 -0.214229 xyz
    dof rx ry rz
  end
:hierarchy
  begin
    root RightUpLegDummy SpineDummy LeftUpLegDummy
    RightUpLegDummy RightUpLeg
    RightUpLeg RightLeg
    RightLeg RightFoot
    RightFoot RightToes
    SpineDummy Spine
    Spine Spine1
    Spine1 HEadDummy LeftShoulder1Dummy RightShoulderDummy
    HEadDummy HEad
    LeftShoulder1Dummy LeftShoulder1
    LeftShoulder1 LeftArm
    LeftArm LeftForeArm
    LeftForeArm LeftHand
    RightShoulderDummy RightShoulder
    RightShoulder RightArm
    RightArm RightForeArm
    RightForeArm RightHand
    LeftUpLegDummy LeftUpLeg
    LeftUpLeg LeftLeg
    LeftLeg LeftFoot
    LeftFoot LeftToes
  end

:SAMPLES-PER-SECOND 30
:FULLY-SPECIFIED
:DEGREES
1
root  -44.316 34.7866 36.0914 -169.666 4.45642 179.489
RightUpLeg  -8.98447 -18.2835 2.54412
RightLeg  5.66862 -2.37439 -0.0810335
RightFoot  2.45821 0.0157728 0.0317205
RightToes  -21.5755 -0.0873622 -0.185173
Spine  -2.72057 -0.13974 0.0180617
Spine1  -5.50892 -0.211376 0.677724
HEad  -64.8065 -6.43558 8.54566
LeftShoulder1  -1.94126e-019 -3.10601e-018 -2.51263e-017
LeftArm  -12.3847 25.8989 -81.966
LeftForeArm  33.3776 -15.5392 -2.58482
LeftHand  -0.413608 -1.79379 6.86503
RightShoulder  -4.96962e-017 0 -2.36833e-017
RightArm  -26.9901 -24.6982 78.3406
RightForeArm  57.8877 14.1978 1.20608
RightHand  -0.388657 -0.279067 -9.05875
LeftUpLeg  -7.29719 1.19814 -0.921719
LeftLeg  4.90722 14.769 0.311757
LeftFoot  3.08838 -0.0184553 0.956317
LeftToes  -18.1727 1.46665e-006 1.03344e-007
2
root  -44.316 34.7947 36.1154 -169.601 4.49023 179.536
RightUpLeg  -8.94635 -18.1415 2.62488
RightLeg  5.38137 -2.47653 -0.0721557
RightFoot  2.6285 0.0157728 0.0317205
RightToes  -21.6062 -0.0873622 -0.185173
Spine  -2.65468 -0.116301 0.0373303
Spine1  -5.37654 -0.156419 0.72536
HEad  -65.2345 -6.46237 8.48802
LeftShoulder1  -1.94126e-019 -3.10601e-018 -2.51263e-017
LeftArm  -11.5866 25.4051 -82.0515
LeftForeArm  32.8808 -15.9623 -2.63015
LeftHand  -0.579306 -3.70079 7.65687
RightShoulder  -4.96962e-017 0 -2.36833e-017
RightArm  -26.3351 -24.2557 78.4445
RightForeArm  57.1254 14.6283 1.15597
RightHand  -0.389395 -0.255096 -9.03466
LeftUpLeg  -7.22982 2.05266 -0.937116
LeftLeg  4.59941 13.9939 0.221277
LeftFoot  3.52548 -0.0227418 1.02294
LeftToes  -19.723 1.46665e-006 1.03344e-007
3
root  -44.316 34.8107 36.1188 -169.598 4.58269 179.507
RightUpLeg  -8.87559 -18.1082 2.59106
RightLeg  5.19422 -2.42101 -0.0626233
RightFoot  2.71097 0.0157728 0.0317205
RightToes  -21.2976 -0.0873622 -0.185173
Spine  -2.66733 -0.116007 0.0276883
Spine1  -5.40228 -0.148554 0.709734
HEad  -65.4994 -6.32341 8.52018
LeftShoulder1  -1.94126e-019 -3.10601e-018 -2.51263e-017
LeftArm  -11.664 25.0071 -82.1913
LeftForeArm  33.0409 -16.2065 -2.68042
LeftHand  -0.563005 -3.72158 7.43345
RightShoulder  -4.96962e-017 0 -2.36833e-017
RightArm  -25.6459 -24.0569 78.5768
RightForeArm  56.5913 15.009 1.11543
RightHand  -0.390347 -0.249613 -8.99985
LeftUpLeg  -7.14526 1.94753 -0.98724
LeftLeg  4.3981 14.2457 0.17567
LeftFoot  3.69671 -0.0266816 1.08418
LeftToes  -19.7643 1.46665e-006 1.03344e-007
4
root  -44.3151 34.8119 36.121 -169.597 4.67265 179.539
RightUpLeg  -8.79878 -18.0624 2.62038
RightLeg  5.01892 -2.37846 -0.054245
RightFoot  2.76344 0.0157888 0.0314927
RightToes  -21.1726 -0.0873622 -0.185173
Spine  -2.76234 -0.140505 0.0280519
Spine1  -5.59255 -0.190879 0.716592
HEad  -65.3737 -6.22356 8.62026
LeftShoulder1  -1.94126e-019 -3.10601e-018 -2.51263e-017
LeftArm  -11.2134 25.1261 -82.2551
LeftForeArm  32.6777 -16.8366 -2.76237
LeftHand  -0.557457 -3.50237 7.53041
RightShoulder  -4.96962e-017 0 -2.36833e-017
RightArm  -25.1247 -24.0406 78.7095
RightForeArm  56.333 15.2447 1.09272
RightHand  -0.391256 -0.168742 -8.97778
LeftUpLeg  -7.05189 1.9933 -0.961495
LeftLeg  4.22888 14.2775 0.13434
LeftFoot  3.70173 -0.0269796 1.08881
LeftToes  -19.5855 1.46665e-006 1.03344e-007
5
root  -44.3203 34.8176 36.13 -169.531 4.61755 179.583
RightUpLeg  -8.77665 -18.2462 2.69412
RightLeg  4.80072 -2.25639 -0.0428446
RightFoot  2.91405 0.0158178 0.0310779
RightToes  -21.3338 -0.0873622 -0.185173
Spine  -2.68751 -0.174233 0.0448477
Spine1  -5.44159 -0.254682 0.75445
HEad  -65.6947 -6.02486 9.08574
LeftShoulder1  -1.94126e-019 -3.10601e-018 -2.51263e-017
LeftArm  -10.413 24.8039 -82.3195
LeftForeArm  31.7048 -17.9477 -2.92984
LeftHand  -0.487013 -2.91073 7.04299
RightShoulder  -4.96962e-017 0 -2.36833e-017
RightArm  -24.6882 -23.662 78.8034
RightForeArm  55.9137 15.4993 1.07537
RightHand  -0.392392 -0.238716 -8.92451
LeftUpLeg  -7.03214 1.91137 -0.918729
LeftLeg  4.02006 14.2934 0.0829586
LeftFoot  3.79398 -0.028606 1.1141
LeftToes  -19.6597 1.46665e-006 1.03344e-007
6
root  -44.3159 34.8243 36.1233 -169.5 4.75104 179.591
RightUpLeg  -8.73634 -18.0721 2.70008
RightLeg  4.65703 -2.30308 -0.0379884
RightFoot  3.01533 0.0158586 0.0304948
RightToes  -21.392 -0.0873622 -0.185173
Spine  -2.70213 -0.14849 0.0513878
Spine1  -5.4699 -0.201685 0.76935
HEad  -65.9003 -5.86427 9.0106
LeftShoulder1  -1.94126e-019 -3.10601e-018 -2.51263e-017
LeftArm  -10.3307 24.5172 -82.5013
LeftForeArm  32.4345 -17.7119 -2.89544
LeftHand  -0.552302 -3.58492 7.39982
RightShoulder  -4.96962e-017 0 -2.36833e-017
RightArm  -24.4656 -23.5944 78.8749
RightForeArm  55.7218 15.6545 1.06604
RightHand  -0.394402 -0.203287 -8.85345
LeftUpLeg  -6.99677 2.09682 -0.915938
LeftLeg  3.92926 14.2128 0.0602157
LeftFoot  3.88068 -0.0297002 1.1311
LeftToes  -19.8058 1.46665e-006 1.03344e-007
7
root  -44.314 34.8275 36.118 -169.479 4.77095 179.597
RightUpLeg  -8.69301 -18.0778 2.71496
RightLeg  4.5361 -2.2835 -0.0398301
RightFoot  3.07486 0.0159099 0.0297621
RightToes  -21.3975 -0.0873622 -0.185173
Spine  -2.71524 -0.166777 0.0655174
Spine1  -5.49495 -0.236558 0.79899
HEad  -66.0497 -6.12835 9.16813
LeftShoulder1  -1.94126e-019 -3.10601e-018 -2.51263e-017
LeftArm  -9.82889 24.4665 -82.6144
LeftForeArm  31.9241 -18.5676 -3.02472
LeftHand  -0.482558 -2.90776 6.98302
RightShoulder  -4.96962e-017 0 -2.36833e-017
RightArm  -24.3344 -23.5354 78.9193
RightForeArm  55.6496 15.672 1.06633
RightHand  -0.392584 -0.287925 -8.86197
LeftUpLeg  -6.95683 2.04747 -0.905095
LeftLeg  3.8365 14.2519 0.0375559
LeftFoot  3.88718 -0.0299989 1.13575
LeftToes  -19.6684 1.46665e-006 1.03344e-007
8
root  -44.3203 34.8224 36.1209 -169.435 4.65392 179.636
RightUpLeg  -8.7434 -18.1514 2.7637
RightLeg  4.56438 -2.30465 -0.0353072
RightFoot  3.06948 0.0159703 0.0288986
RightToes  -21.4325 -0.0873622 -0.185173
Spine  -2.73123 -0.206896 0.0803285
Spine1  -5.52813 -0.315059 0.827992
HEad  -66.1697 -6.12698 9.2792
LeftShoulder1  -1.94126e-019 -3.10601e-018 -2.51263e-017
LeftArm  -9.79915 24.2436 -82.7398
LeftForeArm  32.5056 -18.3864 -2.99735
LeftHand  -0.548587 -3.58397 7.35256
RightShoulder  -4.96962e-017 0 -2.36833e-017
RightArm  -24.4072 -23.5396 78.9481
RightForeArm  55.7214 15.6127 1.06954
RightHand  -0.39163 -0.184443 -8.84793
LeftUpLeg  -7.04742 1.95405 -0.86451
LeftLeg  3.90138 14.236 0.05346
LeftFoot  3.8647 -0.0295384 1.12859
LeftToes  -19.7824 1.46665e-006 1.03344e-007
